<svg width="250" height="250" viewBox="0 0 250 250" fill="none" xmlns="http://www.w3.org/2000/svg">
<path fill-rule="evenodd" clip-rule="evenodd" d="M124.829 181.245C115.695 186.466 104.822 189.73 93.2958 189.73C69.5913 189.73 48.7139 176.675 37.4053 157.528C37.4053 157.528 37.4053 157.528 37.4053 157.311C37.4053 157.311 37.4053 157.311 37.4053 157.093L46.5392 152.306L55.673 147.737C55.673 147.737 55.8905 147.955 55.8905 148.172C63.7195 160.792 77.6377 169.278 93.5132 169.278C98.5151 169.278 103.517 168.407 107.866 166.884C98.0802 155.788 92.2084 140.992 92.2084 125.109C92.2084 109.225 98.0802 94.4299 107.649 83.3333C103.3 81.8103 98.5151 80.9399 93.5132 80.9399C77.8552 80.9399 63.502 89.4256 55.4555 102.916V103.133L37.1878 93.5596C37.1878 93.342 37.4053 93.1244 37.4053 93.1244C48.4964 73.5422 69.5913 60.4874 93.5132 60.4874C105.039 60.4874 116.13 63.5335 125.047 68.973C134.181 63.5335 145.054 60.4874 156.58 60.4874C180.502 60.4874 201.597 73.5422 212.688 93.1244C212.688 93.1244 212.906 93.342 212.906 93.5596L194.638 103.133V102.916C186.592 89.208 172.238 80.7224 156.58 80.7224C151.578 80.7224 146.794 81.5927 142.445 83.1157C152.013 94.4299 157.885 109.008 157.885 124.891C157.885 140.992 152.013 155.57 142.227 166.667C146.577 168.19 151.578 169.06 156.58 169.06C172.456 169.06 186.374 160.574 194.203 147.955C194.203 147.737 194.421 147.737 194.421 147.52L203.554 152.089L212.688 156.876C212.688 156.876 212.688 156.876 212.688 157.093C212.688 157.093 212.688 157.093 212.688 157.311C201.162 176.675 180.285 189.73 156.58 189.73C144.837 189.73 133.963 186.466 124.829 181.245ZM124.829 155.57C117.218 147.52 112.433 136.858 112.433 124.891C112.433 113.142 117 102.48 124.829 94.6475C132.658 102.698 137.225 113.142 137.225 124.891C137.225 136.858 132.441 147.52 124.829 155.57Z" fill="white"/>
<path fill-rule="evenodd" clip-rule="evenodd" d="M124.829 0C193.551 0 249.659 56.1358 249.659 124.891C249.659 193.647 193.551 249.782 124.829 249.782C56.1079 249.782 0 193.647 0 124.891C0 56.1358 56.1079 0 124.829 0ZM124.829 4.13403C191.376 4.13403 245.527 58.3116 245.527 124.891C245.527 191.471 191.376 245.648 124.829 245.648C58.2827 245.648 4.13198 191.471 4.13198 124.891C4.13198 58.5292 58.2827 4.35161 124.829 4.13403Z" fill="white"/>
</svg>
